<svg version="1.0" xmlns="http://www.w3.org/2000/svg" width="726px" height="913px" viewBox="0 0 726 913">
  <path fill="#ffffff" d="M173.5 912 c-14 -1.6 -29.8 -7.3 -41.2 -15.1 -7 -4.7 -17.8 -15.4 -22.9 -22.6 -5.8 -8 -11.8 -21 -14.6 -31.4 l-2.2 -8.4 -0.3 -238.7 -0.3 -238.8 -24.5 0 c-13.9 0 -26.7 -0.5 -29.7 -1.1 -19.9 -4.1 -34.5 -20.7 -36.9 -41.5 -0.6 -5.8 -0.9 -44.6 -0.7 -105 0.3 -94.9 0.3 -96 2.5 -102.1 5.7 -16.8 19.8 -29.1 36.7 -32.2 3.8 -0.7 25.8 -1.1 61 -1.1 30.3 0 56.8 -0.3 58.8 -0.6 3.5 -0.6 4.3 -1.6 14.9 -17.6 12.5 -18.7 19 -25.7 32.3 -34.3 14.4 -9.3 27.9 -14.9 45.6 -18.7 9.1 -2 13.2 -2.1 99.9 -2.5 56.3 -0.3 95.9 -0.1 105 0.6 29 2 51.4 10.7 73.3 28.2 7.4 5.9 9.6 8.6 20.7 25 6.9 10.1 13 18.7 13.5 19.1 0.6 0.4 27.3 0.8 59.2 0.8 35.3 0 60.2 0.4 63.5 1 19.3 3.7 35 20.1 37.9 39.6 1.3 9.4 1.3 193.7 0 202.4 -3 19 -18.9 35.4 -37.9 39 -3 0.5 -15 1 -26.7 1 l-21.4 0 0 237.5 c0 261.8 0.4 244 -6.1 260.5 -9.1 22.8 -28.7 42.3 -51.4 51.1 -17.3 6.8 -1.1 6.3 -211 6.5 -104.5 0.1 -193.1 -0.2 -197 -0.6z m210.8 -115.7 c4.7 -1.5 12.4 -6.6 16 -10.7 1 -1.2 3.3 -5 5 -8.6 l3.2 -6.5 0 -215 0 -215 -2.9 -6 c-3.8 -7.6 -10.5 -14.3 -18.1 -18 -5.4 -2.7 -7 -3 -16 -3 -9 0 -10.6 0.3 -15.8 2.9 -6.8 3.5 -15 11.7 -18 18.3 l-2.2 4.8 0 216 0 216 2.8 5.7 c8.5 17.2 27.2 25 46 19.1z m-137.8 -56.7 c7.2 -3.3 14.5 -10.2 18.1 -17.3 l2.9 -5.8 0 -142.5 0 -142.5 -3.4 -6.3 c-4.1 -7.5 -10.3 -13.5 -17.9 -17 -4.9 -2.3 -7 -2.7 -15.2 -2.7 -8.7 0 -10.1 0.3 -16.1 3.2 -7.9 3.9 -14 10.2 -17.7 18.1 l-2.7 5.7 0 141.5 0 141.5 2.9 5.9 c4.9 10 14.6 17.9 25.3 20.6 6.3 1.6 17.6 0.5 23.8 -2.4z m275.8 -54 c7.3 -3.5 13.8 -10.1 17.4 -17.4 l2.8 -5.7 0.3 -140.7 0.2 -140.7 -2.1 -5.6 c-3.3 -8.9 -9.2 -15.3 -17.9 -19.8 -13.1 -6.6 -26.3 -5.9 -38 2.1 -6.9 4.6 -13.4 14 -14.9 21.4 -0.8 3.7 -1.1 46.6 -0.9 143.8 l0.3 138.5 2.6 5.6 c4.7 9.9 12.8 17.1 23.2 20.5 2.6 0.9 7.4 1.3 12.8 1.1 6.9 -0.2 9.6 -0.8 14.2 -3.1z"/>
</svg>
